<?xml version="1.0" encoding="UTF-8"?>
<svg version="1.1" xmlns="http://www.w3.org/2000/svg" width="724" height="579">
<path d="M0 0 C238.92 0 477.84 0 724 0 C724 191.07 724 382.14 724 579 C485.08 579 246.16 579 0 579 C0 387.93 0 196.86 0 0 Z " fill="#000000" transform="translate(0,0)"/>
<path d="M0 0 C7.16594502 3.09094459 13.08496097 4.92496283 21 4 C25.07295 1.38913461 26.31636045 -2.62253716 28 -7 C29.98 -7 31.96 -7 34 -7 C34 13.46 34 33.92 34 55 C32.35 54.67 30.7 54.34 29 54 C29 53.34 29 52.68 29 52 C28.01 52 27.02 52 26 52 C25.70867187 50.99839844 25.41734375 49.99679688 25.1171875 48.96484375 C22.25267123 39.36125601 22.25267123 39.36125601 16.33984375 31.41015625 C14.30808335 29.27177285 13.3115837 26.62316739 12 24 C7.2815619 18.78488421 2.2425417 14.91320951 -4.0625 11.8125 C-5.08472656 11.30332031 -6.10695313 10.79414063 -7.16015625 10.26953125 C-9.47662214 9.23397222 -11.5247181 8.49268201 -14 8 C-14 7.34 -14 6.68 -14 6 C-36.17540606 5.22018968 -51.49815657 5.82977442 -68.51757812 21.45019531 C-76.82707806 29.39325146 -80.48696829 38.44904939 -83.09375 49.44921875 C-84.09246535 53.36228882 -85.47707207 56.90059814 -87.16796875 60.55859375 C-93.12879251 78.04927381 -88.82543154 100.92553338 -85.0625 118.4375 C-84.90491211 119.17137939 -84.74732422 119.90525879 -84.58496094 120.66137695 C-83.45552361 125.63803093 -81.86656021 130.2501354 -80 135 C-79.62875 136.0725 -79.2575 137.145 -78.875 138.25 C-75.28540043 146.4737916 -69.42407754 153.16845748 -62 158 C-62 158.66 -62 159.32 -62 160 C-60.02 160.66 -58.04 161.32 -56 162 C-56 162.66 -56 163.32 -56 164 C-55.39671875 164.13277344 -54.7934375 164.26554688 -54.171875 164.40234375 C-52.97304688 164.66724609 -52.97304688 164.66724609 -51.75 164.9375 C-50.96109375 165.11152344 -50.1721875 165.28554688 -49.359375 165.46484375 C-47.9595665 165.78234998 -46.56454118 166.12548807 -45.18530273 166.52294922 C-40.65315259 167.51231593 -35.93161117 167.18471908 -31.3125 167.1875 C-29.7356543 167.20586914 -29.7356543 167.20586914 -28.12695312 167.22460938 C-19.93322805 167.23990569 -12.50425848 166.5084083 -5.0625 162.875 C-1.18248175 161 -1.18248175 161 1 161 C-0.6658292 167.16356805 -3.87805286 172.48259656 -7 178 C-7.66 178 -8.32 178 -9 178 C-9.20625 178.804375 -9.4125 179.60875 -9.625 180.4375 C-11.06077177 184.15745413 -12.85040899 186.93388522 -15.1015625 190.1953125 C-17.44727903 193.66079494 -19.66388878 197.1976267 -21.875 200.75 C-22.30748047 201.44399902 -22.73996094 202.13799805 -23.18554688 202.85302734 C-25.80345711 207.06066259 -28.40572768 211.27774302 -31 215.5 C-60.10760861 262.85854868 -60.10760861 262.85854868 -74 276 C-75.175625 277.2065625 -75.175625 277.2065625 -76.375 278.4375 C-81.78732355 283.7209587 -87.18696316 287.89342471 -93.625 291.8125 C-94.27065918 292.20985352 -94.91631836 292.60720703 -95.58154297 293.01660156 C-99.02373568 295.06542021 -101.99985829 296.53255049 -106 297 C-106 297.66 -106 298.32 -106 299 C-107.41538717 299.33872513 -108.83237963 299.67074624 -110.25 300 C-111.03890625 300.185625 -111.8278125 300.37125 -112.640625 300.5625 C-115 301 -115 301 -119 301 C-119 301.66 -119 302.32 -119 303 C-136.41562893 303.75265623 -136.41562893 303.75265623 -142 299 C-148.24135643 292.82312039 -151.27666657 288.11267544 -151.375 279.125 C-151.25974828 272.23150657 -150.48134414 268.4631648 -145.50390625 263.51171875 C-140.23790826 258.84980033 -135.68554208 258.57758358 -128.8984375 258.66796875 C-126 259 -126 259 -122.75 260.9375 C-120.37308153 265.09710733 -120.21882155 268.31292931 -121 273 C-121.495 274.11375 -121.99 275.2275 -122.5 276.375 C-124.47839362 281.15611793 -124.86656677 285.87706113 -124 291 C-120.20836973 293.52775351 -117.19125969 293.22443035 -112.8125 293.125 C-111.68811523 293.11146484 -111.68811523 293.11146484 -110.54101562 293.09765625 C-108.69387346 293.07412578 -106.84689588 293.03825561 -105 293 C-105 292.34 -105 291.68 -105 291 C-104.07767578 290.72736328 -104.07767578 290.72736328 -103.13671875 290.44921875 C-102.32847656 290.19785156 -101.52023438 289.94648438 -100.6875 289.6875 C-99.88699219 289.44386719 -99.08648437 289.20023437 -98.26171875 288.94921875 C-95.81742878 287.92337684 -94.79774847 286.91153002 -93 285 C-91.22652059 283.66302713 -89.43278276 282.35271208 -87.625 281.0625 C-71.71348696 269.68774068 -60.29898946 253.14440799 -50.55859375 236.31640625 C-50.04425781 235.55199219 -49.52992188 234.78757812 -49 234 C-48.34 234 -47.68 234 -47 234 C-46.896875 233.443125 -46.79375 232.88625 -46.6875 232.3125 C-45.57976078 228.58646808 -43.73723933 225.73723933 -41 223 C-39.96157435 220.68351201 -38.9578025 218.35096976 -38 216 C-37.34 216 -36.68 216 -36 216 C-35.7215625 214.824375 -35.7215625 214.824375 -35.4375 213.625 C-33.74681067 209.36152256 -31.36761863 206.11039277 -28.6875 202.4140625 C-26.78591283 199.69373641 -25.35188564 197.02186203 -24 194 C-23.34 194 -22.68 194 -22 194 C-21.6596875 192.7934375 -21.6596875 192.7934375 -21.3125 191.5625 C-19.66368412 187.08714261 -17.39455588 183.11278682 -15 179 C-16.53140625 179.24169922 -16.53140625 179.24169922 -18.09375 179.48828125 C-24.53951426 180.28833767 -31.01434078 180.19192049 -37.5 180.1875 C-38.16752289 180.18722809 -38.83504578 180.18695618 -39.52279663 180.18667603 C-56.0851807 180.1555928 -70.58890091 179.0846177 -85.4453125 171.28125 C-87.39312406 170.30436592 -89.39127948 169.42721407 -91.40625 168.59765625 C-101.84673304 163.95618064 -109.8895073 156.81876302 -117 148 C-117.66902344 147.21625 -118.33804688 146.4325 -119.02734375 145.625 C-121.27233483 142.63760593 -122.85917066 139.60624183 -124.5 136.25 C-124.80260742 135.63237793 -125.10521484 135.01475586 -125.41699219 134.37841797 C-127.72801967 129.63375223 -129.95804801 124.86633419 -132 120 C-132.27585938 119.38382812 -132.55171875 118.76765625 -132.8359375 118.1328125 C-139.37327774 102.53381251 -139.53024827 78.58151114 -133.5625 62.5 C-133.046875 61.345 -132.53125 60.19 -132 59 C-131.5875 57.7625 -131.175 56.525 -130.75 55.25 C-128.9821994 50.4919835 -126.33782731 46.26035481 -123.71875 41.9296875 C-121.96474435 39.03899999 -121.96474435 39.03899999 -120.59375 36.02734375 C-118.76774322 32.55882598 -116.53364475 29.6514622 -114 26.6875 C-113.51869629 26.12281006 -113.03739258 25.55812012 -112.54150391 24.97631836 C-103.39550483 14.51504317 -91.91948381 6.11551816 -79 1 C-77.77796875 0.50242188 -76.5559375 0.00484375 -75.296875 -0.5078125 C-51.71901443 -9.9093456 -23.38309494 -10.41073188 0 0 Z " fill="#F8F8F8" transform="translate(328,188)"/>
<path d="M0 0 C1.58206057 0.00667536 3.16410534 0.0186375 4.74609375 0.03515625 C5.55240234 0.03966797 6.35871094 0.04417969 7.18945312 0.04882812 C9.18753131 0.06065107 11.18557158 0.07858711 13.18359375 0.09765625 C13.18359375 0.75765625 13.18359375 1.41765625 13.18359375 2.09765625 C14.07046875 2.32453125 14.95734375 2.55140625 15.87109375 2.78515625 C19.64771845 4.28155471 21.56977351 6.02257362 24.18359375 9.09765625 C24.18359375 9.75765625 24.18359375 10.41765625 24.18359375 11.09765625 C24.84359375 11.09765625 25.50359375 11.09765625 26.18359375 11.09765625 C28.70137294 17.7949489 29.75236974 25.42367419 27.42578125 32.35546875 C25.56819439 35.73422911 23.13904896 38.63477691 20.18359375 41.09765625 C19.52359375 41.09765625 18.86359375 41.09765625 18.18359375 41.09765625 C18.18359375 41.75765625 18.18359375 42.41765625 18.18359375 43.09765625 C12.66113249 44.93847667 6.43987693 45.04529519 1.05859375 42.78515625 C-1.31576069 40.64823726 -1.74274356 38.93344443 -2.01953125 35.79296875 C-2.11838064 30.37272708 -1.6146514 27.76139817 1.18359375 23.09765625 C1.60911599 19.72621079 1.76346089 16.4517897 1.18359375 13.09765625 C-0.35772935 11.1310591 -1.22698084 10.20324871 -3.7175293 9.75708008 C-4.41402588 9.77279053 -5.11052246 9.78850098 -5.828125 9.8046875 C-6.58544922 9.81435547 -7.34277344 9.82402344 -8.12304688 9.83398438 C-8.90873047 9.85912109 -9.69441406 9.88425781 -10.50390625 9.91015625 C-11.30119141 9.92369141 -12.09847656 9.93722656 -12.91992188 9.95117188 C-14.88570592 9.98648536 -16.85114207 10.04029178 -18.81640625 10.09765625 C-18.81640625 10.75765625 -18.81640625 11.41765625 -18.81640625 12.09765625 C-20.75265723 13.07929047 -22.69045164 14.05788079 -24.62890625 15.03515625 C-25.70785156 15.58042969 -26.78679687 16.12570313 -27.8984375 16.6875 C-30.81640625 18.09765625 -30.81640625 18.09765625 -33.81640625 19.09765625 C-34.31140625 20.58265625 -34.31140625 20.58265625 -34.81640625 22.09765625 C-36.81640625 23.09765625 -38.81640625 24.09765625 -40.81640625 25.09765625 C-43.27551946 27.22080422 -43.27551946 27.22080422 -45.81640625 30.09765625 C-46.50992188 30.8453125 -47.2034375 31.59296875 -47.91796875 32.36328125 C-52.54258172 37.40550142 -56.86061594 42.51822066 -60.81640625 48.09765625 C-61.45835937 48.98324219 -62.1003125 49.86882812 -62.76171875 50.78125 C-68.02326799 58.18325027 -72.73627538 65.84348912 -77.36914062 73.65234375 C-80.31138561 78.60730919 -83.30214326 83.51504696 -86.44140625 88.34765625 C-93.366518 99.00933909 -100.05211858 109.81859004 -106.69140625 120.66015625 C-107.14370605 121.39782227 -107.59600586 122.13548828 -108.06201172 122.89550781 C-115.27582976 134.70776488 -117.80300504 142.19146471 -115.81640625 156.09765625 C-115.15640625 156.09765625 -114.49640625 156.09765625 -113.81640625 156.09765625 C-113.5946875 156.72027344 -113.37296875 157.34289062 -113.14453125 157.984375 C-109.90906475 166.38955427 -105.59152323 173.97357452 -101.00683594 181.7097168 C-98.40449853 186.13722484 -96.39825314 190.1946806 -94.81640625 195.09765625 C-93.83019741 196.11125978 -92.82873529 197.1101392 -91.81640625 198.09765625 C-90.58466803 200.37637195 -89.4281215 202.63756877 -88.31640625 204.97265625 C-86.31307097 209.12804602 -84.2225312 213.15788226 -81.81640625 217.09765625 C-81.30078125 218.17015625 -80.78515625 219.24265625 -80.25390625 220.34765625 C-79.10633667 223.19664544 -79.10633667 223.19664544 -76.81640625 224.09765625 C-76.56375 223.22496094 -76.31109375 222.35226562 -76.05078125 221.453125 C-74.77090685 217.97397276 -73.19526241 215.43428719 -71.06640625 212.41015625 C-66.8206772 206.21556796 -63.17316333 199.8111704 -59.81640625 193.09765625 C-59.15640625 193.09765625 -58.49640625 193.09765625 -57.81640625 193.09765625 C-57.52765625 192.02515625 -57.23890625 190.95265625 -56.94140625 189.84765625 C-56.08820516 187.00365261 -55.25275595 184.66256642 -53.81640625 182.09765625 C-53.15640625 182.09765625 -52.49640625 182.09765625 -51.81640625 182.09765625 C-51.58953125 181.27265625 -51.36265625 180.44765625 -51.12890625 179.59765625 C-49.77525403 175.98791701 -48.05979641 173.12257854 -45.9375 169.9296875 C-44.65450739 167.98770551 -44.65450739 167.98770551 -43.81640625 165.09765625 C-43.15640625 165.09765625 -42.49640625 165.09765625 -41.81640625 165.09765625 C-41.54054688 164.38351562 -41.2646875 163.669375 -40.98046875 162.93359375 C-39.82927595 160.12900995 -38.52496348 157.44436076 -37.19140625 154.72265625 C-34.55974044 148.97943264 -33.78130554 145.20295838 -35.81640625 139.09765625 C-41.42640625 138.10765625 -47.03640625 137.11765625 -52.81640625 136.09765625 C-52.81640625 134.11765625 -52.81640625 132.13765625 -52.81640625 130.09765625 C-34.99640625 130.09765625 -17.17640625 130.09765625 1.18359375 130.09765625 C1.18359375 132.07765625 1.18359375 134.05765625 1.18359375 136.09765625 C0.38695312 136.24460937 -0.4096875 136.3915625 -1.23046875 136.54296875 C-8.30920065 138.04138645 -12.34232888 139.32845122 -16.81640625 145.09765625 C-18.17260254 147.29688247 -18.17260254 147.29688247 -18.81640625 149.09765625 C-19.47640625 149.09765625 -20.13640625 149.09765625 -20.81640625 149.09765625 C-21.09226562 149.84144531 -21.368125 150.58523438 -21.65234375 151.3515625 C-22.72036122 153.87108022 -23.86659012 155.81369774 -25.44140625 158.03515625 C-28.05935633 161.86676765 -30.41633771 165.80604435 -32.69140625 169.84765625 C-35.91290041 175.56110476 -39.283528 181.16171105 -42.73828125 186.73828125 C-51.32989244 200.60969826 -51.32989244 200.60969826 -58.81640625 215.09765625 C-59.47640625 215.09765625 -60.13640625 215.09765625 -60.81640625 215.09765625 C-61.06390625 215.77828125 -61.31140625 216.45890625 -61.56640625 217.16015625 C-63.05838533 220.66630708 -64.88476136 223.81385993 -66.81640625 227.09765625 C-67.47640625 227.09765625 -68.13640625 227.09765625 -68.81640625 227.09765625 C-68.96078125 227.71640625 -69.10515625 228.33515625 -69.25390625 228.97265625 C-69.81640625 231.09765625 -69.81640625 231.09765625 -70.81640625 233.09765625 C-70.91285195 235.05270391 -70.94436934 237.01108126 -70.94580078 238.96850586 C-70.95052902 240.81568459 -70.95052902 240.81568459 -70.95535278 242.70018005 C-70.95356274 244.0501204 -70.95151173 245.40006042 -70.94921875 246.75 C-70.94989219 248.13001014 -70.95086256 249.51002017 -70.95211792 250.89002991 C-70.95359348 253.78436409 -70.9514452 256.67866744 -70.94677734 259.57299805 C-70.94108546 263.28318969 -70.9443565 266.99330891 -70.95034981 270.70349789 C-70.95396378 273.55420985 -70.95281289 276.40490466 -70.95022202 279.25561714 C-70.94955479 280.62356131 -70.95037406 281.99150704 -70.95270157 283.35944939 C-70.95524114 285.27210332 -70.95068411 287.18476272 -70.94580078 289.09741211 C-70.94500519 290.1861412 -70.94420959 291.2748703 -70.94338989 292.39659119 C-70.93417172 295.19657348 -70.93417172 295.19657348 -69.81640625 298.09765625 C-68.15692477 299.1095352 -66.49060063 300.11031085 -64.81640625 301.09765625 C-64.81640625 301.75765625 -64.81640625 302.41765625 -64.81640625 303.09765625 C-64.25131348 303.11747559 -63.6862207 303.13729492 -63.10400391 303.15771484 C-60.54932628 303.25283861 -57.99548084 303.36256683 -55.44140625 303.47265625 C-54.55195313 303.50359375 -53.6625 303.53453125 -52.74609375 303.56640625 C-51.8953125 303.60507812 -51.04453125 303.64375 -50.16796875 303.68359375 C-49.38244629 303.71501465 -48.59692383 303.74643555 -47.78759766 303.77880859 C-45.81640625 304.09765625 -45.81640625 304.09765625 -43.81640625 306.09765625 C-43.81640625 307.08765625 -43.81640625 308.07765625 -43.81640625 309.09765625 C-76.81640625 309.09765625 -109.81640625 309.09765625 -143.81640625 309.09765625 C-143.48640625 307.44765625 -143.15640625 305.79765625 -142.81640625 304.09765625 C-141.71941406 304.04867188 -140.62242187 303.9996875 -139.4921875 303.94921875 C-138.037737 303.87415034 -136.58331109 303.79860428 -135.12890625 303.72265625 C-134.04706055 303.67625 -134.04706055 303.67625 -132.94335938 303.62890625 C-127.68732723 303.34090449 -123.67943522 302.70193119 -119.56640625 299.16015625 C-116.69166276 295.77206571 -116.69327167 292.89254585 -116.70288086 288.61645508 C-116.70299416 286.9350518 -116.70299416 286.9350518 -116.70310974 285.21968079 C-116.70827103 284.010233 -116.71343231 282.80078522 -116.71875 281.5546875 C-116.72016495 280.31595383 -116.7215799 279.07722015 -116.72303772 277.8009491 C-116.72769023 274.51134088 -116.73667235 271.22178165 -116.7477417 267.93218994 C-116.75797996 264.57394002 -116.76254051 261.21568292 -116.76757812 257.85742188 C-116.7786148 251.27081413 -116.79535858 244.6842392 -116.81640625 238.09765625 C-117.47640625 238.09765625 -118.13640625 238.09765625 -118.81640625 238.09765625 C-121.81640625 233.71304087 -121.81640625 233.71304087 -121.81640625 231.09765625 C-122.47640625 231.09765625 -123.13640625 231.09765625 -123.81640625 231.09765625 C-124.32255923 229.82926099 -124.82109724 228.55782523 -125.31640625 227.28515625 C-125.7340625 226.22361328 -125.7340625 226.22361328 -126.16015625 225.140625 C-126.81640625 223.09765625 -126.81640625 223.09765625 -126.81640625 220.09765625 C-127.47640625 220.09765625 -128.13640625 220.09765625 -128.81640625 220.09765625 C-130.77362637 217.37456739 -131.91076985 214.82020845 -132.9921875 211.640625 C-135.53167303 204.75369772 -139.65162524 198.58339397 -143.4296875 192.32226562 C-144.00589844 191.33677734 -144.58210938 190.35128906 -145.17578125 189.3359375 C-145.70655273 188.44946533 -146.23732422 187.56299316 -146.78417969 186.6496582 C-148.02394669 183.58454835 -147.81261103 182.21032029 -146.81640625 179.09765625 C-144.15781616 173.26920875 -140.92950884 167.82576063 -137.67578125 162.3125 C-135.79829068 159.06633459 -134.01611743 155.78265027 -132.25390625 152.47265625 C-127.65856132 143.89332048 -122.65959565 135.80392112 -117.06518555 127.84375 C-114.50281155 124.16944326 -112.23829895 120.45245934 -110.140625 116.5 C-107.75657329 112.17495043 -105.0967048 108.01242177 -102.48828125 103.8203125 C-100.85953304 101.25635678 -100.85953304 101.25635678 -99.81640625 99.09765625 C-99.15640625 99.09765625 -98.49640625 99.09765625 -97.81640625 99.09765625 C-97.58695312 98.26105469 -97.3575 97.42445313 -97.12109375 96.5625 C-95.57545149 92.45775544 -93.4383089 89.23807943 -90.94140625 85.66015625 C-88.37821442 81.94466898 -85.8669717 78.26688623 -83.68359375 74.3125 C-81.81640625 71.09765625 -81.81640625 71.09765625 -80.2578125 69.5546875 C-78.04489844 67.31778522 -77.06525866 64.63017879 -75.75390625 61.78515625 C-67.51366381 44.61497931 -53.78098482 27.52171578 -37.81640625 17.09765625 C-36.80081225 16.1134973 -35.79790559 15.1158208 -34.81640625 14.09765625 C-30.05951791 10.61271849 -25.55624472 8.4130359 -19.81640625 7.09765625 C-19.81640625 6.43765625 -19.81640625 5.77765625 -19.81640625 5.09765625 C-18.74519531 4.82050781 -17.67398438 4.54335937 -16.5703125 4.2578125 C-15.17312998 3.89210701 -13.7759971 3.52621179 -12.37890625 3.16015625 C-11.67185547 2.97775391 -10.96480469 2.79535156 -10.23632812 2.60742188 C-0.36346726 0.0093006 -0.36346726 0.0093006 0 0 Z " fill="#F8F8F8" transform="translate(508.81640625,128.90234375)"/>
<path d="M0 0 C1.58206057 0.00667536 3.16410534 0.0186375 4.74609375 0.03515625 C5.55240234 0.03966797 6.35871094 0.04417969 7.18945312 0.04882812 C9.18753131 0.06065107 11.18557158 0.07858711 13.18359375 0.09765625 C13.18359375 0.75765625 13.18359375 1.41765625 13.18359375 2.09765625 C14.07046875 2.32453125 14.95734375 2.55140625 15.87109375 2.78515625 C19.64771845 4.28155471 21.56977351 6.02257362 24.18359375 9.09765625 C24.18359375 9.75765625 24.18359375 10.41765625 24.18359375 11.09765625 C24.84359375 11.09765625 25.50359375 11.09765625 26.18359375 11.09765625 C28.70137294 17.7949489 29.75236974 25.42367419 27.42578125 32.35546875 C25.56819439 35.73422911 23.13904896 38.63477691 20.18359375 41.09765625 C19.52359375 41.09765625 18.86359375 41.09765625 18.18359375 41.09765625 C18.18359375 41.75765625 18.18359375 42.41765625 18.18359375 43.09765625 C12.66113249 44.93847667 6.43987693 45.04529519 1.05859375 42.78515625 C-1.31576069 40.64823726 -1.74274356 38.93344443 -2.01953125 35.79296875 C-2.11838064 30.37272708 -1.6146514 27.76139817 1.18359375 23.09765625 C1.60911599 19.72621079 1.76346089 16.4517897 1.18359375 13.09765625 C-0.35772935 11.1310591 -1.22698084 10.20324871 -3.7175293 9.75708008 C-4.41402588 9.77279053 -5.11052246 9.78850098 -5.828125 9.8046875 C-6.58544922 9.81435547 -7.34277344 9.82402344 -8.12304688 9.83398438 C-8.90873047 9.85912109 -9.69441406 9.88425781 -10.50390625 9.91015625 C-11.30119141 9.92369141 -12.09847656 9.93722656 -12.91992188 9.95117188 C-14.88570592 9.98648536 -16.85114207 10.04029178 -18.81640625 10.09765625 C-18.81640625 10.75765625 -18.81640625 11.41765625 -18.81640625 12.09765625 C-20.75265723 13.07929047 -22.69045164 14.05788079 -24.62890625 15.03515625 C-25.70785156 15.58042969 -26.78679687 16.12570313 -27.8984375 16.6875 C-30.81640625 18.09765625 -30.81640625 18.09765625 -33.81640625 19.09765625 C-34.31140625 20.58265625 -34.31140625 20.58265625 -34.81640625 22.09765625 C-36.81640625 23.09765625 -38.81640625 24.09765625 -40.81640625 25.09765625 C-43.27551946 27.22080422 -43.27551946 27.22080422 -45.81640625 30.09765625 C-46.50992188 30.8453125 -47.2034375 31.59296875 -47.91796875 32.36328125 C-52.54258172 37.40550142 -56.86061594 42.51822066 -60.81640625 48.09765625 C-61.45835937 48.98324219 -62.1003125 49.86882812 -62.76171875 50.78125 C-68.02326799 58.18325027 -72.73627538 65.84348912 -77.36914062 73.65234375 C-80.31138561 78.60730919 -83.30214326 83.51504696 -86.44140625 88.34765625 C-93.366518 99.00933909 -100.05211858 109.81859004 -106.69140625 120.66015625 C-107.14370605 121.39782227 -107.59600586 122.13548828 -108.06201172 122.89550781 C-114.6816847 133.73488281 -118.41432587 141.10805817 -115.81640625 154.09765625 C-116.47640625 154.09765625 -117.13640625 154.09765625 -117.81640625 154.09765625 C-118.77260358 150.09969733 -118.92036545 146.38961703 -118.87890625 142.28515625 C-118.86988281 141.12371094 -118.86085938 139.96226562 -118.8515625 138.765625 C-118.83996094 137.88519531 -118.82835937 137.00476563 -118.81640625 136.09765625 C-122.57665241 138.60448702 -123.20832711 140.96259559 -124.81640625 145.09765625 C-125.47640625 145.09765625 -126.13640625 145.09765625 -126.81640625 145.09765625 C-124.49838541 138.56505207 -121.05132683 132.56594288 -116.81640625 127.09765625 C-114.24556995 123.77644894 -112.22447396 120.37392988 -110.24609375 116.67578125 C-107.81735942 112.2960964 -105.13338285 108.07136865 -102.48828125 103.8203125 C-100.85953304 101.25635678 -100.85953304 101.25635678 -99.81640625 99.09765625 C-99.15640625 99.09765625 -98.49640625 99.09765625 -97.81640625 99.09765625 C-97.58695312 98.26105469 -97.3575 97.42445313 -97.12109375 96.5625 C-95.57545149 92.45775544 -93.4383089 89.23807943 -90.94140625 85.66015625 C-88.37821442 81.94466898 -85.8669717 78.26688623 -83.68359375 74.3125 C-81.81640625 71.09765625 -81.81640625 71.09765625 -80.2578125 69.5546875 C-78.04489844 67.31778522 -77.06525866 64.63017879 -75.75390625 61.78515625 C-67.51366381 44.61497931 -53.78098482 27.52171578 -37.81640625 17.09765625 C-36.80081225 16.1134973 -35.79790559 15.1158208 -34.81640625 14.09765625 C-30.05951791 10.61271849 -25.55624472 8.4130359 -19.81640625 7.09765625 C-19.81640625 6.43765625 -19.81640625 5.77765625 -19.81640625 5.09765625 C-18.74519531 4.82050781 -17.67398438 4.54335937 -16.5703125 4.2578125 C-15.17312998 3.89210701 -13.7759971 3.52621179 -12.37890625 3.16015625 C-11.67185547 2.97775391 -10.96480469 2.79535156 -10.23632812 2.60742188 C-0.36346726 0.0093006 -0.36346726 0.0093006 0 0 Z " fill="#F4F4F4" transform="translate(508.81640625,128.90234375)"/>
<path d="M0 0 C1.32 0 2.64 0 4 0 C3.42731867 4.38786825 1.80663604 7.29098075 -0.5625 11 C-1.29190248 12.15349675 -2.02106229 13.30714699 -2.75 14.4609375 C-3.12382812 15.04713867 -3.49765625 15.63333984 -3.8828125 16.23730469 C-5.64211734 19.01313094 -7.34911526 21.82067106 -9.0625 24.625 C-12.06842204 29.51182062 -15.12981447 34.3592793 -18.22265625 39.19140625 C-20.16067459 42.25390117 -22.05020379 45.34351147 -23.9375 48.4375 C-33.4677615 63.9540144 -43.69095939 80.41036699 -57 93 C-57.78375 93.804375 -58.5675 94.60875 -59.375 95.4375 C-64.78732355 100.7209587 -70.18696316 104.89342471 -76.625 108.8125 C-77.27065918 109.20985352 -77.91631836 109.60720703 -78.58154297 110.01660156 C-82.02373568 112.06542021 -84.99985829 113.53255049 -89 114 C-89 114.66 -89 115.32 -89 116 C-90.41538717 116.33872513 -91.83237963 116.67074624 -93.25 117 C-94.03890625 117.185625 -94.8278125 117.37125 -95.640625 117.5625 C-98 118 -98 118 -102 118 C-102 118.66 -102 119.32 -102 120 C-119.41562893 120.75265623 -119.41562893 120.75265623 -125 116 C-131.24135643 109.82312039 -134.27666657 105.11267544 -134.375 96.125 C-134.25974828 89.23150657 -133.48134414 85.4631648 -128.50390625 80.51171875 C-123.23790826 75.84980033 -118.68554208 75.57758358 -111.8984375 75.66796875 C-109 76 -109 76 -105.75 77.9375 C-103.37308153 82.09710733 -103.21882155 85.31292931 -104 90 C-104.495 91.11375 -104.99 92.2275 -105.5 93.375 C-107.47839362 98.15611793 -107.86656677 102.87706113 -107 108 C-103.20836973 110.52775351 -100.19125969 110.22443035 -95.8125 110.125 C-95.06291016 110.11597656 -94.31332031 110.10695313 -93.54101562 110.09765625 C-91.69387346 110.07412578 -89.84689588 110.03825561 -88 110 C-88 109.34 -88 108.68 -88 108 C-87.38511719 107.81824219 -86.77023438 107.63648438 -86.13671875 107.44921875 C-85.32847656 107.19785156 -84.52023438 106.94648438 -83.6875 106.6875 C-82.88699219 106.44386719 -82.08648437 106.20023437 -81.26171875 105.94921875 C-78.81742878 104.92337684 -77.79774847 103.91153002 -76 102 C-74.22652059 100.66302713 -72.43278276 99.35271208 -70.625 98.0625 C-54.71348696 86.68774068 -43.29898946 70.14440799 -33.55859375 53.31640625 C-33.04425781 52.55199219 -32.52992188 51.78757812 -32 51 C-31.34 51 -30.68 51 -30 51 C-29.896875 50.443125 -29.79375 49.88625 -29.6875 49.3125 C-28.57976078 45.58646808 -26.73723933 42.73723933 -24 40 C-22.96157435 37.68351201 -21.9578025 35.35096976 -21 33 C-20.34 33 -19.68 33 -19 33 C-18.814375 32.21625 -18.62875 31.4325 -18.4375 30.625 C-16.74681067 26.36152256 -14.36761863 23.11039277 -11.6875 19.4140625 C-9.78591283 16.69373641 -8.35188564 14.02186203 -7 11 C-6.34 11 -5.68 11 -5 11 C-4.731875 10.113125 -4.46375 9.22625 -4.1875 8.3125 C-3.06137492 5.17120373 -2.02670832 2.65031088 0 0 Z " fill="#F6F6F6" transform="translate(311,371)"/>
<path d="M0 0 C-0.33 1.32 -0.66 2.64 -1 4 C1.31 4 3.62 4 6 4 C6 4.66 6 5.32 6 6 C1.05 6.33 -3.9 6.66 -9 7 C-9 7.66 -9 8.32 -9 9 C-10.93625098 9.98163422 -12.87404539 10.96022454 -14.8125 11.9375 C-15.89144531 12.48277344 -16.97039062 13.02804688 -18.08203125 13.58984375 C-21 15 -21 15 -24 16 C-24.495 17.485 -24.495 17.485 -25 19 C-27 20 -29 21 -31 22 C-33.45911321 24.12314797 -33.45911321 24.12314797 -36 27 C-36.69351563 27.74765625 -37.38703125 28.4953125 -38.1015625 29.265625 C-42.72617547 34.30784517 -47.04420969 39.42056441 -51 45 C-51.64195312 45.88558594 -52.28390625 46.77117187 -52.9453125 47.68359375 C-58.20686174 55.08559402 -62.91986913 62.74583287 -67.55273438 70.5546875 C-70.49497936 75.50965294 -73.48573701 80.41739071 -76.625 85.25 C-83.55011175 95.91168284 -90.23571233 106.72093379 -96.875 117.5625 C-97.3272998 118.30016602 -97.77959961 119.03783203 -98.24560547 119.79785156 C-104.86527845 130.63722656 -108.59791962 138.01040192 -106 151 C-106.66 151 -107.32 151 -108 151 C-108.95619733 147.00204108 -109.1039592 143.29196078 -109.0625 139.1875 C-109.05347656 138.02605469 -109.04445313 136.86460937 -109.03515625 135.66796875 C-109.02355469 134.78753906 -109.01195312 133.90710938 -109 133 C-112.76024616 135.50683077 -113.39192086 137.86493934 -115 142 C-115.66 142 -116.32 142 -117 142 C-114.68197916 135.46739582 -111.23492058 129.46828663 -107 124 C-104.4291637 120.67879269 -102.40806771 117.27627363 -100.4296875 113.578125 C-98.00095317 109.19844015 -95.3169766 104.9737124 -92.671875 100.72265625 C-91.04312679 98.15870053 -91.04312679 98.15870053 -90 96 C-89.34 96 -88.68 96 -88 96 C-87.77054687 95.16339844 -87.54109375 94.32679688 -87.3046875 93.46484375 C-85.75904524 89.36009919 -83.62190265 86.14042318 -81.125 82.5625 C-78.56180817 78.84701273 -76.05056545 75.16922998 -73.8671875 71.21484375 C-72 68 -72 68 -70.44140625 66.45703125 C-68.22849219 64.22012897 -67.24885241 61.53252254 -65.9375 58.6875 C-57.69725756 41.51732306 -43.96457857 24.42405953 -28 14 C-26.984406 13.01584105 -25.98149934 12.01816455 -25 11 C-20.24311166 7.51506224 -15.73983847 5.31537965 -10 4 C-10 3.34 -10 2.68 -10 2 C-6.38026598 0.68373308 -3.90432869 0 0 0 Z " fill="#DADADA" transform="translate(499,132)"/>
<path d="M0 0 C17.82 0 35.64 0 54 0 C54 1.98 54 3.96 54 6 C53.20335937 6.14695312 52.40671875 6.29390625 51.5859375 6.4453125 C44.5072056 7.9437302 40.47407737 9.23079497 36 15 C34.64380371 17.19922622 34.64380371 17.19922622 34 19 C33.34 19 32.68 19 32 19 C31.73058594 19.73347656 31.46117187 20.46695312 31.18359375 21.22265625 C30.03878071 23.90899971 28.73341636 26.05229878 27.0625 28.4375 C24.71708385 31.86673926 22.73934405 35.23142122 21 39 C20.731875 38.4225 20.46375 37.845 20.1875 37.25 C18.98280141 34.9674132 17.59201885 33.0262058 16 31 C15.67 31.66 15.34 32.32 15 33 C14.01 33 13.02 33 12 33 C12.93134221 30.59403263 13.88837554 28.22793544 15.0234375 25.91015625 C17.85727162 20.0314578 19.14528474 15.43585422 17 9 C8.585 7.515 8.585 7.515 0 6 C0 4.02 0 2.04 0 0 Z " fill="#EBEBEB" transform="translate(456,259)"/>
<path d="M0 0 C1.32 0 2.64 0 4 0 C3.42731867 4.38786825 1.80663604 7.29098075 -0.5625 11 C-1.29190248 12.15349675 -2.02106229 13.30714699 -2.75 14.4609375 C-3.31074219 15.34023926 -3.31074219 15.34023926 -3.8828125 16.23730469 C-5.64211734 19.01313094 -7.34911526 21.82067106 -9.0625 24.625 C-12.06842204 29.51182062 -15.12981447 34.3592793 -18.22265625 39.19140625 C-20.16067459 42.25390117 -22.05020379 45.34351147 -23.9375 48.4375 C-33.4677615 63.9540144 -43.69095939 80.41036699 -57 93 C-57.78375 93.804375 -58.5675 94.60875 -59.375 95.4375 C-64.78732355 100.7209587 -70.18696316 104.89342471 -76.625 108.8125 C-77.27065918 109.20985352 -77.91631836 109.60720703 -78.58154297 110.01660156 C-82.02373568 112.06542021 -84.99985829 113.53255049 -89 114 C-89 114.66 -89 115.32 -89 116 C-91.475 116.495 -91.475 116.495 -94 117 C-94 116.34 -94 115.68 -94 115 C-93.34 115 -92.68 115 -92 115 C-92 114.34 -92 113.68 -92 113 C-94.97 113 -97.94 113 -101 113 C-101.33 112.34 -101.66 111.68 -102 111 C-97.38 110.67 -92.76 110.34 -88 110 C-88 109.34 -88 108.68 -88 108 C-87.38511719 107.81824219 -86.77023438 107.63648438 -86.13671875 107.44921875 C-85.32847656 107.19785156 -84.52023438 106.94648438 -83.6875 106.6875 C-82.88699219 106.44386719 -82.08648437 106.20023437 -81.26171875 105.94921875 C-78.81742878 104.92337684 -77.79774847 103.91153002 -76 102 C-74.22652059 100.66302713 -72.43278276 99.35271208 -70.625 98.0625 C-54.71348696 86.68774068 -43.29898946 70.14440799 -33.55859375 53.31640625 C-33.04425781 52.55199219 -32.52992188 51.78757812 -32 51 C-31.34 51 -30.68 51 -30 51 C-29.896875 50.443125 -29.79375 49.88625 -29.6875 49.3125 C-28.57976078 45.58646808 -26.73723933 42.73723933 -24 40 C-22.96157435 37.68351201 -21.9578025 35.35096976 -21 33 C-20.34 33 -19.68 33 -19 33 C-18.814375 32.21625 -18.62875 31.4325 -18.4375 30.625 C-16.74681067 26.36152256 -14.36761863 23.11039277 -11.6875 19.4140625 C-9.78591283 16.69373641 -8.35188564 14.02186203 -7 11 C-6.34 11 -5.68 11 -5 11 C-4.731875 10.113125 -4.46375 9.22625 -4.1875 8.3125 C-3.06137492 5.17120373 -2.02670832 2.65031088 0 0 Z " fill="#DBDBDB" transform="translate(311,371)"/>
<path d="M0 0 C0 0.99 0 1.98 0 3 C0.22558594 3.78246094 0.45117188 4.56492187 0.68359375 5.37109375 C1.1097494 8.91186844 0.0664985 10.15516739 -1.9375 13.0625 C-2.58589844 14.02027344 -3.23429687 14.97804688 -3.90234375 15.96484375 C-4.94068359 17.46724609 -4.94068359 17.46724609 -6 19 C-7.3339657 21.04125355 -8.66730103 23.08291919 -10 25.125 C-13.44081876 30.27278744 -17.10917125 35.18509942 -21 40 C-21.33 39.34 -21.66 38.68 -22 38 C-23.32 38.66 -24.64 39.32 -26 40 C-24.7251901 37.33760716 -23.33735403 34.91282764 -21.64453125 32.49609375 C-21.19005615 31.84253906 -20.73558105 31.18898438 -20.26733398 30.515625 C-19.78723877 29.82984375 -19.30714355 29.1440625 -18.8125 28.4375 C-14.79850925 22.67368588 -10.96094453 16.86416206 -7.33984375 10.84375 C-6.89769531 10.2353125 -6.45554687 9.626875 -6 9 C-5.34 9 -4.68 9 -4 9 C-3.896875 8.443125 -3.79375 7.88625 -3.6875 7.3125 C-2.86866423 4.55823422 -1.54146219 2.41272343 0 0 Z " fill="#DFDFDF" transform="translate(285,413)"/>
<path d="M0 0 C1.98 0 3.96 0 6 0 C6 20.46 6 40.92 6 62 C4.35 61.67 2.7 61.34 1 61 C1 60.34 1 59.68 1 59 C0.01 59 -0.98 59 -2 59 C-1.67 57.68 -1.34 56.36 -1 55 C0.5 56.375 0.5 56.375 2 58 C2 58.66 2 59.32 2 60 C2.66 60 3.32 60 4 60 C4 40.53 4 21.06 4 1 C2.68 0.67 1.36 0.34 0 0 Z " fill="#9A9A9A" transform="translate(356,181)"/>
<path d="M0 0 C0.66 1.32 1.32 2.64 2 4 C-0.39050096 5.48842513 -2.78674435 6.96578095 -5.1875 8.4375 C-6.19780273 9.06881836 -6.19780273 9.06881836 -7.22851562 9.71289062 C-10.79793012 11.88936288 -13.75570427 13.5467257 -18 14 C-18 14.66 -18 15.32 -18 16 C-19.65 16.33 -21.3 16.66 -23 17 C-23 16.34 -23 15.68 -23 15 C-22.34 15 -21.68 15 -21 15 C-21 14.34 -21 13.68 -21 13 C-23.97 13 -26.94 13 -30 13 C-30.33 12.34 -30.66 11.68 -31 11 C-26.38 10.67 -21.76 10.34 -17 10 C-17 9.34 -17 8.68 -17 8 C-16.07767578 7.72736328 -16.07767578 7.72736328 -15.13671875 7.44921875 C-13.92435547 7.07216797 -13.92435547 7.07216797 -12.6875 6.6875 C-11.88699219 6.44386719 -11.08648437 6.20023437 -10.26171875 5.94921875 C-7.87087064 4.94580581 -6.74901989 3.86827125 -5 2 C-2.3125 0.8125 -2.3125 0.8125 0 0 Z " fill="#EBEBEB" transform="translate(240,471)"/>
<path d="M0 0 C0 0.99 0 1.98 0 3 C0.99 3.66 1.98 4.32 3 5 C1.90833564 6.6748823 0.80126363 8.33973123 -0.3125 10 C-0.92738281 10.928125 -1.54226563 11.85625 -2.17578125 12.8125 C-2.77777344 13.534375 -3.37976563 14.25625 -4 15 C-4.99 15 -5.98 15 -7 15 C-7.33 15.66 -7.66 16.32 -8 17 C-8.66 17 -9.32 17 -10 17 C-10.33 18.65 -10.66 20.3 -11 22 C-11.66 22 -12.32 22 -13 22 C-11.54728081 16.66229465 -9.03627576 12.6800674 -5.9375 8.1875 C-5.47794922 7.50751953 -5.01839844 6.82753906 -4.54492188 6.12695312 C-1.19907318 1.19907318 -1.19907318 1.19907318 0 0 Z " fill="#CACACA" transform="translate(445,172)"/>
<path d="M0 0 C0.69921875 1.6953125 0.69921875 1.6953125 1 4 C-0.29296875 6.3671875 -0.29296875 6.3671875 -2.1875 8.875 C-2.83203125 9.74640625 -3.4765625 10.6178125 -4.140625 11.515625 C-4.75421875 12.33546875 -5.3678125 13.1553125 -6 14 C-6.822914 15.20126527 -7.63784237 16.40812969 -8.4375 17.625 C-8.953125 18.40875 -9.46875 19.1925 -10 20 C-11.1875 18.3125 -11.1875 18.3125 -12 16 C-10.75 13.5625 -10.75 13.5625 -9 11 C-8.690625 10.0925 -8.38125 9.185 -8.0625 8.25 C-7.711875 7.5075 -7.36125 6.765 -7 6 C-5.67696283 5.6278958 -4.34262065 5.29369827 -3 5 C-1.77472052 3.04978917 -1.77472052 3.04978917 -1 1 C-0.67 0.67 -0.34 0.34 0 0 Z " fill="#D9D9D9" transform="translate(296,400)"/>
<path d="M0 0 C0.66 0.33 1.32 0.66 2 1 C1.67 2.65 1.34 4.3 1 6 C-0.65 6.33 -2.3 6.66 -4 7 C-4 7.66 -4 8.32 -4 9 C-5.65 9.33 -7.3 9.66 -9 10 C-9 9.34 -9 8.68 -9 8 C-8.34 8 -7.68 8 -7 8 C-7 7.34 -7 6.68 -7 6 C-9.97 6 -12.94 6 -16 6 C-16.33 5.34 -16.66 4.68 -17 4 C-12.38 3.67 -7.76 3.34 -3 3 C-3 2.34 -3 1.68 -3 1 C-2.01 0.67 -1.02 0.34 0 0 Z " fill="#D7D7D7" transform="translate(226,478)"/>
<path d="M0 0 C2 3 2 3 1.875 5.375 C0.80877598 8.57367205 -0.6964121 10.55680071 -3 13 C-3.66 13 -4.32 13 -5 13 C-6.37310707 14.29233607 -7.71034824 15.62437146 -9 17 C-9.33 16.34 -9.66 15.68 -10 15 C-9.34 15 -8.68 15 -8 15 C-7.79375 14.195625 -7.5875 13.39125 -7.375 12.5625 C-5.57139638 7.889527 -2.87884691 4.07383996 0 0 Z " fill="#D4D4D4" transform="translate(300,389)"/>
<path d="M0 0 C1.5625 1.0625 1.5625 1.0625 3 3 C2.6875 6.1875 2.6875 6.1875 2 10 C1.73339505 14.76211592 2.06389792 19.31948962 3 24 C2.34 24 1.68 24 1 24 C0.04380267 20.00204108 -0.1039592 16.29196078 -0.0625 12.1875 C-0.05347656 11.02605469 -0.04445313 9.86460937 -0.03515625 8.66796875 C-0.02355469 7.78753906 -0.01195312 6.90710938 0 6 C-3.76024616 8.50683077 -4.39192086 10.86493934 -6 15 C-6.66 15 -7.32 15 -8 15 C-6.25565047 10.08410586 -3.74513488 3.74513488 0 0 Z " fill="#BABABA" transform="translate(390,259)"/>
<path d="M0 0 C0.66 0 1.32 0 2 0 C0.85485202 5.41342681 -0.34012809 7.9342948 -5 11 C-5.99 10.34 -6.98 9.68 -8 9 C-8.99 9 -9.98 9 -11 9 C-9.93458984 8.15115234 -9.93458984 8.15115234 -8.84765625 7.28515625 C-7.92855469 6.55167969 -7.00945312 5.81820313 -6.0625 5.0625 C-5.14597656 4.33160156 -4.22945312 3.60070312 -3.28515625 2.84765625 C-1.59148731 1.48061289 -1.59148731 1.48061289 0 0 Z " fill="#D4D4D4" transform="translate(248,463)"/>
<path d="M0 0 C2.12472576 -0.05386629 4.24983652 -0.09273071 6.375 -0.125 C7.55835938 -0.14820313 8.74171875 -0.17140625 9.9609375 -0.1953125 C13 0 13 0 15 2 C15 2.99 15 3.98 15 5 C12.03 5 9.06 5 6 5 C6.33 4.01 6.66 3.02 7 2 C4.69 1.67 2.38 1.34 0 1 C0 0.67 0 0.34 0 0 Z " fill="#DDDDDD" transform="translate(450,433)"/>
<path d="M0 0 C1.32 0.33 2.64 0.66 4 1 C2.6062718 5.43458973 0.39417765 7.87378374 -3 11 C-3 10.34 -3 9.68 -3 9 C-4.98 9.99 -4.98 9.99 -7 11 C-5.22054913 6.95579349 -2.60470327 3.53921513 0 0 Z " fill="#D6D6D6" transform="translate(266,442)"/>
<path d="M0 0 C0.99 0.66 1.98 1.32 3 2 C1.93446504 3.84373465 0.84696823 5.67479236 -0.25 7.5 C-0.85328125 8.5209375 -1.4565625 9.541875 -2.078125 10.59375 C-3.02945312 11.78484375 -3.02945312 11.78484375 -4 13 C-5.32 13 -6.64 13 -8 13 C-7.8125 10.625 -7.8125 10.625 -7 8 C-6.195625 7.690625 -5.39125 7.38125 -4.5625 7.0625 C-1.65720566 6.20990208 -1.65720566 6.20990208 -0.6875 2.875 C-0.460625 1.92625 -0.23375 0.9775 0 0 Z " fill="#D9D9D9" transform="translate(275,431)"/>
<path d="M0 0 C-0.30595176 3.56943715 -1.02424641 5.03014419 -3.3125 7.875 C-6 10 -6 10 -8.3125 9.8125 C-8.869375 9.544375 -9.42625 9.27625 -10 9 C-6 0 -6 0 0 0 Z " fill="#DEDEDE" transform="translate(454,166)"/>
<path d="M0 0 C1 3 1 3 -0.21484375 5.48046875 C-0.78332031 6.37378906 -1.35179687 7.26710937 -1.9375 8.1875 C-2.50339844 9.08855469 -3.06929688 9.98960937 -3.65234375 10.91796875 C-4.09707031 11.60503906 -4.54179687 12.29210937 -5 13 C-5.99 12.67 -6.98 12.34 -8 12 C-7.34 9.69 -6.68 7.38 -6 5 C-5.01 5 -4.02 5 -3 5 C-2.814375 4.0409375 -2.814375 4.0409375 -2.625 3.0625 C-2.41875 2.381875 -2.2125 1.70125 -2 1 C-1.34 0.67 -0.68 0.34 0 0 Z " fill="#EAEAEA" transform="translate(408,235)"/>
<path d="M0 0 C0.66 0.33 1.32 0.66 2 1 C1.50628906 1.50789063 1.01257813 2.01578125 0.50390625 2.5390625 C-0.13675781 3.22742188 -0.77742187 3.91578125 -1.4375 4.625 C-2.07558594 5.29789062 -2.71367187 5.97078125 -3.37109375 6.6640625 C-6.56118728 11.23882493 -6.11762131 16.47311165 -6.0625 21.875 C-6.05347656 23.02742188 -6.04445312 24.17984375 -6.03515625 25.3671875 C-6.02355469 26.23601562 -6.01195312 27.10484375 -6 28 C-9.39404931 22.90892603 -8.54996405 16.94229446 -8 11 C-6.52415248 6.45073807 -3.53802002 3.15894645 0 0 Z " fill="#C8C8C8" transform="translate(185,449)"/>
<path d="M0 0 C0 0.66 0 1.32 0 2 C-0.99 2.33 -1.98 2.66 -3 3 C-3.45375 3.804375 -3.9075 4.60875 -4.375 5.4375 C-6.33078527 8.52162293 -7.61941288 8.84565318 -11 10 C-12.36365283 10.95824253 -13.70794169 11.94721175 -15 13 C-15.66 12.67 -16.32 12.34 -17 12 C-3.89320388 0 -3.89320388 0 0 0 Z " fill="#CACACA" transform="translate(240,194)"/>
<path d="M0 0 C-0.33 1.32 -0.66 2.64 -1 4 C1.31 4 3.62 4 6 4 C6 4.66 6 5.32 6 6 C3.03 6 0.06 6 -3 6 C-3 5.34 -3 4.68 -3 4 C-5.31 4 -7.62 4 -10 4 C-10 3.34 -10 2.68 -10 2 C-6.38026598 0.68373308 -3.90432869 0 0 0 Z " fill="#C8C8C8" transform="translate(499,132)"/>
<path d="M0 0 C1 3 1 3 -0.109375 5.48046875 C-0.65078125 6.37378906 -1.1921875 7.26710937 -1.75 8.1875 C-2.28109375 9.08855469 -2.8121875 9.98960937 -3.359375 10.91796875 C-3.90078125 11.60503906 -4.4421875 12.29210937 -5 13 C-5.99 13 -6.98 13 -8 13 C-8 11.68 -8 10.36 -8 9 C-7.01 9 -6.02 9 -5 9 C-4.67 7.35 -4.34 5.7 -4 4 C-3.34 4 -2.68 4 -2 4 C-1.34 2.68 -0.68 1.36 0 0 Z " fill="#EFEFEF" transform="translate(439,185)"/>
<path d="M0 0 C1 2 1 2 0.44140625 3.875 C0.15136719 4.57625 -0.13867188 5.2775 -0.4375 6 C-1.66557525 8.90915074 -1.66557525 8.90915074 -2 12 C-4.31 13.32 -6.62 14.64 -9 16 C-8.33333333 14.66666667 -7.66666667 13.33333333 -7 12 C-6.54625 11.05125 -6.0925 10.1025 -5.625 9.125 C-3.94175999 5.88799998 -2.07050424 2.99866131 0 0 Z " fill="#BBBBBB" transform="translate(374,287)"/>
<path d="M0 0 C0 0.66 0 1.32 0 2 C-5.445 3.485 -5.445 3.485 -11 5 C-11.33 4.34 -11.66 3.68 -12 3 C-11.34 3 -10.68 3 -10 3 C-9.67 2.01 -9.34 1.02 -9 0 C-5.8033 -1.37001429 -3.30096158 -0.8252404 0 0 Z " fill="#FAFAFA" transform="translate(496,136)"/>
<path d="M0 0 C1.66666667 0 3.33333333 0 5 0 C4.34 1.65 3.68 3.3 3 5 C2.01 5 1.02 5 0 5 C-0.33 5.66 -0.66 6.32 -1 7 C-1.66 7 -2.32 7 -3 7 C-3.33 8.65 -3.66 10.3 -4 12 C-4.66 12 -5.32 12 -6 12 C-4.68535639 7.39874735 -2.96668552 3.77578157 0 0 Z " fill="#C9C9C9" transform="translate(438,182)"/>
<path d="M0 0 C1.85625 -0.00773438 1.85625 -0.00773438 3.75 -0.015625 C7 0.25 7 0.25 10 2.25 C9.67 2.91 9.34 3.57 9 4.25 C5 4.25 5 4.25 2 3.25 C2.33 2.59 2.66 1.93 3 1.25 C-3.435 1.745 -3.435 1.745 -10 2.25 C-6.32077133 -0.20281911 -4.37740649 -0.01823919 0 0 Z " fill="#464646" transform="translate(500,137.75)"/>
<path d="M0 0 C0 3.72820818 -0.84132013 4.97784819 -3 8 C-4.92395293 9.79666851 -6.9177066 11.38043847 -9 13 C-9.66 12.67 -10.32 12.34 -11 12 C-9.54601271 10.18401175 -8.08667675 8.37230481 -6.625 6.5625 C-5.40683594 5.04849609 -5.40683594 5.04849609 -4.1640625 3.50390625 C-2 1 -2 1 0 0 Z " fill="#D3D3D3" transform="translate(222,207)"/>
<path d="M0 0 C0.99 0.66 1.98 1.32 3 2 C2.67 2.99 2.34 3.98 2 5 C1.38125 5.28875 0.7625 5.5775 0.125 5.875 C-3.23702029 7.65489309 -4.34993197 10.69986394 -6 14 C-6.66 14 -7.32 14 -8 14 C-6.68448876 9.39571066 -4.90803514 5.81679612 -2 2 C-1.34 2 -0.68 2 0 2 C0 1.34 0 0.68 0 0 Z " fill="#353535" transform="translate(450,342)"/>
<path d="M0 0 C0.680625 0.309375 1.36125 0.61875 2.0625 0.9375 C5.36965912 2.13370649 8.51545878 2.59005397 12 3 C12 3.66 12 4.32 12 5 C9.03 4.67 6.06 4.34 3 4 C2.67 4.99 2.34 5.98 2 7 C1.34 7 0.68 7 0 7 C-0.38133299 5.0085944 -0.71325582 3.00720923 -1 1 C-0.67 0.67 -0.34 0.34 0 0 Z " fill="#2E2E2E" transform="translate(508,170)"/>
<path d="M0 0 C2.4375 0.375 2.4375 0.375 5 1 C5.33 1.66 5.66 2.32 6 3 C5.34 3 4.68 3 4 3 C4.33 4.32 4.66 5.64 5 7 C2.5625 6.625 2.5625 6.625 0 6 C-1.24546405 3.50907189 -0.7767578 2.58919267 0 0 Z " fill="#ECECEC" transform="translate(198,447)"/>
<path d="M0 0 C0.33 0.99 0.66 1.98 1 3 C0.2884375 3.928125 0.2884375 3.928125 -0.4375 4.875 C-2.3328954 7.45273775 -2.26043988 8.87472142 -2 12 C-2.598125 12.28875 -3.19625 12.5775 -3.8125 12.875 C-6.19327792 14.04742026 -6.19327792 14.04742026 -9 16 C-7.56691865 12.04093183 -5.66858051 8.71281819 -3.375 5.1875 C-2.74335938 4.21167969 -2.11171875 3.23585938 -1.4609375 2.23046875 C-0.73777344 1.12638672 -0.73777344 1.12638672 0 0 Z " fill="#3B3B3B" transform="translate(293,408)"/>
<path d="M0 0 C1.32 0 2.64 0 4 0 C3.38722388 2.96175123 2.74627478 4.38058783 1 7 C-0.32 6.67 -1.64 6.34 -3 6 C-2.01 4.02 -1.02 2.04 0 0 Z " fill="#E9E9E9" transform="translate(393,255)"/>
<path d="M0 0 C0.99 0.99 1.98 1.98 3 3 C1.68 4.65 0.36 6.3 -1 8 C-1 7.34 -1 6.68 -1 6 C-3.475 7.485 -3.475 7.485 -6 9 C-4.47291037 5.56404834 -2.40072955 2.88087546 0 0 Z " fill="#CCCCCC" transform="translate(430,197)"/>
<path d="M0 0 C0.33 0.66 0.66 1.32 1 2 C1.99 2.33 2.98 2.66 4 3 C2.68 4.32 1.36 5.64 0 7 C0 6.34 0 5.68 0 5 C-1.98 5.99 -3.96 6.98 -6 8 C-4.55746343 4.63408134 -2.66735273 2.48952921 0 0 Z " fill="#C3C3C3" transform="translate(454,161)"/>
<path d="M0 0 C0.66 0.33 1.32 0.66 2 1 C0.63016497 4.16115776 0.0109362 4.9927092 -3 7 C-3.99 7 -4.98 7 -6 7 C-5.8125 5.1875 -5.8125 5.1875 -5 3 C-2.5625 1.1875 -2.5625 1.1875 0 0 Z " fill="#EEEEEE" transform="translate(232,476)"/>
<path d="M0 0 C1 2 1 2 0.36328125 4.09375 C0.01652344 4.8878125 -0.33023437 5.681875 -0.6875 6.5 C-1.02136719 7.2940625 -1.35523438 8.088125 -1.69921875 8.90625 C-3.19558554 11.31481637 -4.3924752 11.98992724 -7 13 C-5.35821735 8.22390502 -2.73453298 4.20617096 0 0 Z " fill="#3A3A3A" transform="translate(409,237)"/>
<path d="M0 0 C0.66 0.33 1.32 0.66 2 1 C0.1875 3.5 0.1875 3.5 -2 6 C-2.99 6 -3.98 6 -5 6 C-5.33 6.99 -5.66 7.98 -6 9 C-6.66 9 -7.32 9 -8 9 C-6.82191948 5.6470016 -5.80593388 3.2447471 -3 1 C-2.01 0.67 -1.02 0.34 0 0 Z " fill="#CCCCCC" transform="translate(411,231)"/>
<path d="M0 0 C1.5 1.375 1.5 1.375 3 3 C3 3.66 3 4.32 3 5 C1.68 5 0.36 5 -1 5 C-1.4021875 6.2065625 -1.4021875 6.2065625 -1.8125 7.4375 C-2.4003125 8.7059375 -2.4003125 8.7059375 -3 10 C-3.99 10.33 -4.98 10.66 -6 11 C-4.54955729 6.89041233 -2.48889248 3.56741255 0 0 Z " fill="#BBBBBB" transform="translate(276,427)"/>
<path d="M0 0 C1 4 1 4 -0.8125 7.25 C-1.534375 8.1575 -2.25625 9.065 -3 10 C-3.66 10 -4.32 10 -5 10 C-5 10.66 -5 11.32 -5 12 C-5.66 11.67 -6.32 11.34 -7 11 C-4.69 7.37 -2.38 3.74 0 0 Z " fill="#323232" transform="translate(283,424)"/>
<path d="M0 0 C0.8125 1.6875 0.8125 1.6875 1 4 C-1.4375 6.75 -1.4375 6.75 -4 9 C-4.66 8.67 -5.32 8.34 -6 8 C-5.67 7.01 -5.34 6.02 -5 5 C-4.34 5 -3.68 5 -3 5 C-2.5359375 4.0409375 -2.5359375 4.0409375 -2.0625 3.0625 C-1 1 -1 1 0 0 Z " fill="#EBEBEB" transform="translate(296,400)"/>
<path d="M0 0 C0 3 0 3 -1 6 C-0.34 6 0.32 6 1 6 C0.67 6.99 0.34 7.98 0 9 C-1.65 9 -3.3 9 -5 9 C-4.3566152 7.686298 -3.71021785 6.37407102 -3.0625 5.0625 C-2.70285156 4.33160156 -2.34320313 3.60070312 -1.97265625 2.84765625 C-1 1 -1 1 0 0 Z " fill="#383838" transform="translate(476,298)"/>
<path d="M0 0 C0.66 0.33 1.32 0.66 2 1 C2.33 1.99 2.66 2.98 3 4 C2.01 5.485 2.01 5.485 1 7 C0.34 7 -0.32 7 -1 7 C-1.33 6.34 -1.66 5.68 -2 5 C-2.99 5 -3.98 5 -5 5 C-3.35 3.35 -1.7 1.7 0 0 Z " fill="#CCCCCC" transform="translate(465,150)"/>
<path d="M0 0 C0.99 0.66 1.98 1.32 3 2 C-0.75 7.875 -0.75 7.875 -3 9 C-3.33 8.01 -3.66 7.02 -4 6 C-3.34 6 -2.68 6 -2 6 C-1.34 4.02 -0.68 2.04 0 0 Z " fill="#EBEBEB" transform="translate(275,431)"/>
<path d="M0 0 C0.33 0.66 0.66 1.32 1 2 C1.66 2.33 2.32 2.66 3 3 C-1.5 7 -1.5 7 -6 7 C-6 6.34 -6 5.68 -6 5 C-4.04072937 3.2856382 -2.04119788 1.61594832 0 0 Z " fill="#3A3A3A" transform="translate(533,165)"/>
<path d="M0 0 C0.66 0 1.32 0 2 0 C1.50168276 3.68754757 0.89932357 5.60490662 -2 8 C-3 5 -3 5 -1.6875 2.3125 C-1.130625 1.549375 -0.57375 0.78625 0 0 Z " fill="#E6E6E6" transform="translate(252,460)"/>
<path d="M0 0 C-0.66 1.98 -1.32 3.96 -2 6 C-2.99 6 -3.98 6 -5 6 C-5.66 4.68 -6.32 3.36 -7 2 C-2.25 0 -2.25 0 0 0 Z " fill="#DEDEDE" transform="translate(329,349)"/>
<path d="M0 0 C0.33 0.66 0.66 1.32 1 2 C0.328125 3.91015625 0.328125 3.91015625 -0.75 6.0625 C-1.09546875 6.77535156 -1.4409375 7.48820312 -1.796875 8.22265625 C-3 10 -3 10 -6 11 C-4.18690997 7.22272911 -2.0926741 3.62730178 0 0 Z " fill="#3F3F3F" transform="translate(300,397)"/>
<path d="M0 0 C1.65 0.33 3.3 0.66 5 1 C4.01 2.485 4.01 2.485 3 4 C2.34 4 1.68 4 1 4 C-0.37310707 5.29233607 -1.71034824 6.62437146 -3 8 C-3.33 7.34 -3.66 6.68 -4 6 C-3.34 6 -2.68 6 -2 6 C-1.34 4.02 -0.68 2.04 0 0 Z " fill="#C4C4C4" transform="translate(294,398)"/>
<path d="M0 0 C1 2 1 2 0.375 4.375 C-1.25561397 7.4879903 -3.15997255 8.98208576 -6 11 C-4.54955729 6.89041233 -2.48889248 3.56741255 0 0 Z " fill="#444444" transform="translate(401,250)"/>
<path d="M0 0 C0 3.6461404 -0.08577934 5.97607286 -2.5625 8.75 C-3.2740625 9.36875 -3.2740625 9.36875 -4 10 C-4.33 9.01 -4.66 8.02 -5 7 C-4.00390625 5.17578125 -4.00390625 5.17578125 -2.5625 3.3125 C-2.08941406 2.68988281 -1.61632812 2.06726563 -1.12890625 1.42578125 C-0.75636719 0.95527344 -0.38382813 0.48476562 0 0 Z " fill="#363636" transform="translate(256,212)"/>
<path d="M0 0 C0.66 0 1.32 0 2 0 C1.25 4.75 1.25 4.75 -1 7 C-1.66 6.67 -2.32 6.34 -3 6 C-2.42655063 3.13275314 -2.1385485 2.1385485 0 0 Z " fill="#EDEDED" transform="translate(427,203)"/>
<path d="M0 0 C0.66 0 1.32 0 2 0 C1.67 1.65 1.34 3.3 1 5 C-0.65 5.33 -2.3 5.66 -4 6 C-2.7260411 3.96166576 -1.38938077 1.96147874 0 0 Z " fill="#F3F3F3" transform="translate(448,170)"/>
<path d="M0 0 C0.66 0.33 1.32 0.66 2 1 C-0.64 3.97 -3.28 6.94 -6 10 C-6 6.41087588 -5.33563446 5.89142971 -3 3.3125 C-2.443125 2.68988281 -1.88625 2.06726563 -1.3125 1.42578125 C-0.879375 0.95527344 -0.44625 0.48476563 0 0 Z " fill="#ADADAD" transform="translate(185,449)"/>
<path d="M0 0 C2.0625 0.4375 2.0625 0.4375 4 1 C3.34 2.32 2.68 3.64 2 5 C1.34 5 0.68 5 0 5 C-0.99 5.33 -1.98 5.66 -3 6 C-1.125 1.125 -1.125 1.125 0 0 Z " fill="#BBBBBB" transform="translate(266,442)"/>
<path d="M0 0 C1.32 0 2.64 0 4 0 C3.67 1.65 3.34 3.3 3 5 C1.35 5 -0.3 5 -2 5 C-1.34 3.35 -0.68 1.7 0 0 Z " fill="#CCCCCC" transform="translate(311,371)"/>
<path d="M0 0 C0.99 0.33 1.98 0.66 3 1 C1.125 5.75 1.125 5.75 0 8 C-0.66 8 -1.32 8 -2 8 C-1.125 1.125 -1.125 1.125 0 0 Z " fill="#393939" transform="translate(329,347)"/>
<path d="M0 0 C0.5534764 2.07553648 1 3.84365964 1 6 C0.34 6 -0.32 6 -1 6 C-1.66 7.65 -2.32 9.3 -3 11 C-4 8 -4 8 -3.22265625 5.95703125 C-2.83980469 5.24933594 -2.45695312 4.54164063 -2.0625 3.8125 C-1.68222656 3.09707031 -1.30195313 2.38164062 -0.91015625 1.64453125 C-0.60980469 1.10183594 -0.30945313 0.55914062 0 0 Z " fill="#D8D8D8" transform="translate(440,338)"/>
<path d="M0 0 C0.66 0.33 1.32 0.66 2 1 C0.15794162 3.54379491 -1.72478134 5.83312509 -4 8 C-4.99 7.67 -5.98 7.34 -7 7 C-4.69 4.69 -2.38 2.38 0 0 Z " fill="#343434" transform="translate(498,267)"/>
<path d="M0 0 C0.33 0.66 0.66 1.32 1 2 C0.67 2.66 0.34 3.32 0 4 C0.66 4 1.32 4 2 4 C1.67 5.32 1.34 6.64 1 8 C-0.32 7.67 -1.64 7.34 -3 7 C-1.125 1.125 -1.125 1.125 0 0 Z " fill="#C9C9C9" transform="translate(400,243)"/>
<path d="M0 0 C0 4 0 4 -1.375 5.75 C-3 7 -3 7 -5 7 C-4.625 4.0625 -4.625 4.0625 -4 1 C-2 0 -2 0 0 0 Z " fill="#D6D6D6" transform="translate(237,473)"/>
<path d="M0 0 C1.32 0.33 2.64 0.66 4 1 C1.69 2.65 -0.62 4.3 -3 6 C-3.66 5.01 -4.32 4.02 -5 3 C-4.360625 2.690625 -3.72125 2.38125 -3.0625 2.0625 C-1.06389179 1.1654837 -1.06389179 1.1654837 0 0 Z " fill="#282828" transform="translate(468,145)"/>
<path d="M0 0 C0 0.99 0 1.98 0 3 C0.31088368 4.67099977 0.64080332 6.33871537 1 8 C0.01 8.495 0.01 8.495 -1 9 C-1 8.34 -1 7.68 -1 7 C-1.99 7.33 -2.98 7.66 -4 8 C-2.25 2.25 -2.25 2.25 0 0 Z " fill="#BDBDBD" transform="translate(285,413)"/>
<path d="M0 0 C2.475 0.99 2.475 0.99 5 2 C4.34 3.32 3.68 4.64 3 6 C1.68 5.67 0.36 5.34 -1 5 C-0.67 3.35 -0.34 1.7 0 0 Z " fill="#2D2D2D" transform="translate(238,357)"/>
<path d="M0 0 C1.32 0.66 2.64 1.32 4 2 C2.70990357 2.50403768 1.41786211 3.00309926 0.125 3.5 C-0.95394531 3.91765625 -0.95394531 3.91765625 -2.0546875 4.34375 C-4 5 -4 5 -6 5 C-6 4.34 -6 3.68 -6 3 C-5.195625 2.690625 -4.39125 2.38125 -3.5625 2.0625 C-1.10919595 1.23664655 -1.10919595 1.23664655 0 0 Z " fill="#323232" transform="translate(257,183)"/>
<path d="M0 0 C0.1875 2.375 0.1875 2.375 0 5 C-0.99 5.66 -1.98 6.32 -3 7 C-3.6875 5.1875 -3.6875 5.1875 -4 3 C-1.64285714 0 -1.64285714 0 0 0 Z " fill="#EFEFEF" transform="translate(288,413)"/>
<path d="M0 0 C1.2065625 0.0309375 1.2065625 0.0309375 2.4375 0.0625 C0.6875 4.9375 0.6875 4.9375 -1.5625 6.0625 C-1.2325 4.7425 -0.9025 3.4225 -0.5625 2.0625 C-1.5525 1.7325 -2.5425 1.4025 -3.5625 1.0625 C-2.5625 0.0625 -2.5625 0.0625 0 0 Z " fill="#888888" transform="translate(313.5625,364.9375)"/>
<path d="M0 0 C1.98 0 3.96 0 6 0 C5.67 1.98 5.34 3.96 5 6 C3.31237149 4.3545622 1.6459651 2.68711423 0 1 C0 0.67 0 0.34 0 0 Z " fill="#272727" transform="translate(256,337)"/>
<path d="M0 0 C0.66 0 1.32 0 2 0 C1.67 1.65 1.34 3.3 1 5 C-0.65 5.33 -2.3 5.66 -4 6 C-2.84826645 3.53199953 -1.95216435 1.95216435 0 0 Z " fill="#F0F0F0" transform="translate(443,178)"/>
<path d="M0 0 C0.99 0.33 1.98 0.66 3 1 C2.67 1.99 2.34 2.98 2 4 C-0.0625 4.6875 -0.0625 4.6875 -2 5 C-1.125 1.125 -1.125 1.125 0 0 Z " fill="#EFEFEF" transform="translate(481,140)"/>
<path d="M0 0 C0.66 0 1.32 0 2 0 C2.33 1.32 2.66 2.64 3 4 C1.35 4.33 -0.3 4.66 -2 5 C-2.33 4.34 -2.66 3.68 -3 3 C-2.34 3 -1.68 3 -1 3 C-0.67 2.01 -0.34 1.02 0 0 Z " fill="#F0F0F0" transform="translate(487,136)"/>
</svg>
